<?xml version="1.0" encoding="utf-8"?>
<!-- Generator: Adobe Illustrator 19.0.0, SVG Export Plug-In . SVG Version: 6.00 Build 0)  -->
<svg version="1.1" id="Layer_1" xmlns="http://www.w3.org/2000/svg" xmlns:xlink="http://www.w3.org/1999/xlink" x="0px" y="0px"
	 viewBox="0 0 800 200" style="enable-background:new 0 0 800 200;" xml:space="preserve">
<style type="text/css">
	.st0{fill:none;stroke:#A7A9AC;stroke-width:3;stroke-linecap:round;stroke-linejoin:round;}
	.st1{fill:#939598;}
</style>
<path id="XMLID_3_" class="st0" d="M361.5,31.3h77c6.1,0,11,4.9,11,11v77c0,6.1-4.9,11-11,11h-77c-6.1,0-11-4.9-11-11v-77
	C350.5,36.2,355.4,31.3,361.5,31.3z"/>
<circle id="XMLID_2_" class="st0" cx="380.8" cy="61.5" r="8.2"/>
<polyline id="XMLID_1_" class="st0" points="449.5,97.2 422,69.8 361.5,130.2 "/>
<g id="XMLID_5_">
	<path id="XMLID_6_" class="st1" d="M344.1,154.5v9.5c0,1.5-0.5,2.7-1.5,3.6s-2.3,1.3-3.9,1.3c-1.6,0-2.9-0.4-3.9-1.3
		s-1.4-2.1-1.4-3.6v-9.5h2.5v9.5c0,1,0.2,1.7,0.7,2.2s1.2,0.8,2.1,0.8c1.9,0,2.9-1,2.9-3v-9.4H344.1z"/>
	<path id="XMLID_8_" class="st1" d="M355.8,163.6c0,1.6-0.4,2.9-1.1,3.9s-1.7,1.5-3,1.5c-1.2,0-2.1-0.4-2.8-1.1v5h-2.4v-14.6h2.2
		l0.1,1.1c0.7-0.8,1.6-1.3,2.8-1.3c1.3,0,2.3,0.5,3,1.4s1.1,2.3,1.1,4V163.6z M353.4,163.4c0-1.1-0.2-1.9-0.6-2.5s-1-0.9-1.8-0.9
		c-1,0-1.7,0.4-2.1,1.2v4.7c0.4,0.8,1.1,1.2,2.1,1.2c0.8,0,1.3-0.3,1.8-0.9S353.4,164.6,353.4,163.4z"/>
	<path id="XMLID_11_" class="st1" d="M360.3,168.7h-2.4v-15h2.4V168.7z"/>
	<path id="XMLID_13_" class="st1" d="M362.4,163.4c0-1,0.2-2,0.6-2.8s1-1.5,1.7-1.9s1.6-0.7,2.6-0.7c1.4,0,2.6,0.5,3.5,1.4
		s1.4,2.1,1.4,3.7l0,0.6c0,1-0.2,2-0.6,2.8s-1,1.5-1.7,1.9s-1.6,0.7-2.6,0.7c-1.5,0-2.7-0.5-3.6-1.5s-1.3-2.3-1.3-4V163.4z
		 M364.8,163.6c0,1.1,0.2,1.9,0.7,2.6s1.1,0.9,1.9,0.9s1.4-0.3,1.9-0.9s0.7-1.5,0.7-2.7c0-1.1-0.2-1.9-0.7-2.5s-1.1-0.9-1.9-0.9
		c-0.8,0-1.4,0.3-1.8,0.9S364.8,162.3,364.8,163.6z"/>
	<path id="XMLID_16_" class="st1" d="M380.6,168.7c-0.1-0.2-0.2-0.5-0.3-1c-0.8,0.8-1.7,1.2-2.8,1.2c-1.1,0-1.9-0.3-2.6-0.9
		s-1-1.4-1-2.2c0-1.1,0.4-2,1.3-2.6s2-0.9,3.6-0.9h1.5v-0.7c0-0.5-0.2-1-0.5-1.3s-0.8-0.5-1.4-0.5c-0.5,0-1,0.1-1.3,0.4
		s-0.5,0.6-0.5,1h-2.4c0-0.6,0.2-1.1,0.6-1.6s0.9-0.9,1.6-1.2s1.4-0.4,2.2-0.4c1.2,0,2.2,0.3,3,0.9s1.1,1.5,1.1,2.6v4.8
		c0,1,0.1,1.7,0.4,2.3v0.2H380.6z M378,167c0.5,0,0.9-0.1,1.3-0.3s0.7-0.5,0.9-0.9v-2h-1.3c-0.9,0-1.5,0.2-2,0.5s-0.7,0.7-0.7,1.3
		c0,0.5,0.2,0.8,0.5,1.1S377.5,167,378,167z"/>
	<path id="XMLID_19_" class="st1" d="M384.6,163.4c0-1.6,0.4-2.9,1.1-3.9s1.8-1.5,3-1.5c1.1,0,2,0.4,2.7,1.2v-5.4h2.4v15h-2.1
		l-0.1-1.1c-0.7,0.9-1.7,1.3-2.8,1.3c-1.2,0-2.2-0.5-3-1.5S384.6,165.1,384.6,163.4z M387,163.6c0,1.1,0.2,1.9,0.6,2.5
		s1,0.9,1.8,0.9c1,0,1.7-0.4,2.1-1.3v-4.5c-0.4-0.8-1.1-1.3-2.1-1.3c-0.8,0-1.4,0.3-1.8,0.9S387,162.4,387,163.6z"/>
	<path id="XMLID_22_" class="st1" d="M407.7,168.7c-0.1-0.2-0.2-0.5-0.3-1c-0.8,0.8-1.7,1.2-2.8,1.2c-1.1,0-1.9-0.3-2.6-0.9
		c-0.7-0.6-1-1.4-1-2.2c0-1.1,0.4-2,1.3-2.6c0.8-0.6,2-0.9,3.6-0.9h1.5v-0.7c0-0.5-0.2-1-0.5-1.3c-0.3-0.3-0.8-0.5-1.4-0.5
		c-0.5,0-1,0.1-1.3,0.4c-0.3,0.3-0.5,0.6-0.5,1h-2.4c0-0.6,0.2-1.1,0.6-1.6c0.4-0.5,0.9-0.9,1.6-1.2c0.7-0.3,1.4-0.4,2.2-0.4
		c1.2,0,2.2,0.3,3,0.9c0.7,0.6,1.1,1.5,1.1,2.6v4.8c0,1,0.1,1.7,0.4,2.3v0.2H407.7z M405,167c0.5,0,0.9-0.1,1.3-0.3
		c0.4-0.2,0.7-0.5,0.9-0.9v-2H406c-0.9,0-1.5,0.2-2,0.5c-0.4,0.3-0.7,0.7-0.7,1.3c0,0.5,0.2,0.8,0.5,1.1S404.5,167,405,167z"/>
	<path id="XMLID_25_" class="st1" d="M428.2,164.1c-0.1,1.5-0.7,2.7-1.7,3.5s-2.3,1.3-3.9,1.3c-1.1,0-2.1-0.3-3-0.8s-1.5-1.3-2-2.3
		s-0.7-2.1-0.7-3.4v-1.3c0-1.3,0.2-2.5,0.7-3.5s1.2-1.8,2-2.4s1.9-0.8,3.1-0.8c1.6,0,2.8,0.4,3.8,1.3s1.5,2.1,1.7,3.6h-2.5
		c-0.1-1-0.4-1.8-0.9-2.2s-1.2-0.7-2.1-0.7c-1.1,0-1.9,0.4-2.5,1.2s-0.9,1.9-0.9,3.5v1.3c0,1.5,0.3,2.7,0.8,3.5
		c0.5,0.8,1.4,1.2,2.4,1.2c1,0,1.7-0.2,2.2-0.7s0.8-1.2,0.9-2.2H428.2z"/>
	<path id="XMLID_27_" class="st1" d="M429.8,163.4c0-1,0.2-2,0.6-2.8s1-1.5,1.7-1.9s1.6-0.7,2.6-0.7c1.4,0,2.6,0.5,3.5,1.4
		s1.4,2.1,1.4,3.7l0,0.6c0,1-0.2,2-0.6,2.8s-1,1.5-1.7,1.9s-1.6,0.7-2.6,0.7c-1.5,0-2.7-0.5-3.6-1.5s-1.3-2.3-1.3-4V163.4z
		 M432.1,163.6c0,1.1,0.2,1.9,0.7,2.6s1.1,0.9,1.9,0.9s1.4-0.3,1.9-0.9s0.7-1.5,0.7-2.7c0-1.1-0.2-1.9-0.7-2.5s-1.1-0.9-1.9-0.9
		c-0.8,0-1.4,0.3-1.8,0.9S432.1,162.3,432.1,163.6z"/>
	<path id="XMLID_30_" class="st1" d="M445.2,165.7l2.2-7.6h2.5l-3.7,10.6h-2.1l-3.7-10.6h2.5L445.2,165.7z"/>
	<path id="XMLID_32_" class="st1" d="M455.9,168.9c-1.5,0-2.7-0.5-3.7-1.4s-1.4-2.2-1.4-3.8v-0.3c0-1.1,0.2-2,0.6-2.8s1-1.5,1.7-1.9
		s1.6-0.7,2.5-0.7c1.4,0,2.6,0.5,3.3,1.4s1.2,2.2,1.2,3.9v1h-6.9c0.1,0.9,0.4,1.6,0.9,2.1s1.2,0.8,1.9,0.8c1.1,0,2-0.4,2.7-1.3
		l1.3,1.2c-0.4,0.6-1,1.1-1.7,1.5S456.7,168.9,455.9,168.9z M455.6,159.9c-0.7,0-1.2,0.2-1.6,0.7s-0.7,1.1-0.8,1.9h4.5v-0.2
		c-0.1-0.8-0.3-1.4-0.6-1.8S456.2,159.9,455.6,159.9z"/>
	<path id="XMLID_35_" class="st1" d="M467.5,160.3c-0.3-0.1-0.6-0.1-1-0.1c-1.1,0-1.8,0.4-2.2,1.3v7.2h-2.4v-10.6h2.3l0.1,1.2
		c0.6-0.9,1.4-1.4,2.4-1.4c0.3,0,0.6,0,0.8,0.1L467.5,160.3z"/>
</g>
</svg>
