<?xml version="1.0" encoding="utf-8"?>
<!-- Generator: Adobe Illustrator 19.0.0, SVG Export Plug-In . SVG Version: 6.00 Build 0)  -->
<svg version="1.1" id="Layer_1" xmlns="http://www.w3.org/2000/svg" xmlns:xlink="http://www.w3.org/1999/xlink" x="0px" y="0px"
	 viewBox="120 181 800 200" style="enable-background:new 120 181 800 200;" xml:space="preserve">
<style type="text/css">
	.st0{fill:#939598;}
	.st1{fill:none;stroke:#A7A9AC;stroke-width:3;stroke-linecap:round;stroke-linejoin:round;}
</style>
<g>
	<path class="st0" d="M462.3,343.7h-5.8v4.4h6.8v2H454v-14.2h9.2v2h-6.8v3.9h5.8V343.7z"/>
	<path class="st0" d="M467.3,339.5l0.1,1.1c0.7-0.9,1.8-1.3,3-1.3c1.4,0,2.4,0.5,2.9,1.6c0.8-1.1,1.8-1.6,3.2-1.6c1.2,0,2,0.3,2.6,1
		s0.9,1.6,0.9,2.9v6.9h-2.4v-6.9c0-0.7-0.1-1.2-0.4-1.5s-0.8-0.5-1.5-0.5c-0.5,0-1,0.1-1.3,0.4s-0.6,0.7-0.7,1.1l0,7.2h-2.4v-7
		c0-1.2-0.7-1.9-1.9-1.9c-1,0-1.6,0.4-2,1.2v7.7h-2.4v-10.6H467.3z"/>
	<path class="st0" d="M491.8,344.9c0,1.6-0.4,2.9-1.1,3.9s-1.7,1.5-3,1.5c-1.2,0-2.2-0.4-2.9-1.3l-0.1,1.1h-2.1v-15h2.4v5.4
		c0.7-0.8,1.6-1.2,2.8-1.2c1.3,0,2.3,0.5,3,1.4s1.1,2.3,1.1,4V344.9z M489.4,344.7c0-1.1-0.2-2-0.6-2.6s-1-0.9-1.8-0.9
		c-1,0-1.8,0.4-2.2,1.3v4.4c0.4,0.9,1.2,1.4,2.2,1.4c0.7,0,1.3-0.3,1.7-0.8s0.6-1.4,0.6-2.5V344.7z"/>
	<path class="st0" d="M498.4,350.3c-1.5,0-2.7-0.5-3.7-1.4s-1.4-2.2-1.4-3.8v-0.3c0-1.1,0.2-2,0.6-2.8s1-1.5,1.7-1.9
		s1.6-0.7,2.5-0.7c1.4,0,2.6,0.5,3.3,1.4s1.2,2.2,1.2,3.9v1h-6.9c0.1,0.9,0.4,1.6,0.9,2.1s1.2,0.8,1.9,0.8c1.1,0,2-0.4,2.7-1.3
		l1.3,1.2c-0.4,0.6-1,1.1-1.7,1.5S499.3,350.3,498.4,350.3z M498.1,341.2c-0.7,0-1.2,0.2-1.6,0.7s-0.7,1.1-0.8,1.9h4.5v-0.2
		c-0.1-0.8-0.3-1.4-0.6-1.8S498.8,341.2,498.1,341.2z"/>
	<path class="st0" d="M504,344.7c0-1.6,0.4-2.9,1.1-3.9s1.8-1.5,3-1.5c1.1,0,2,0.4,2.7,1.2v-5.4h2.4v15h-2.1L511,349
		c-0.7,0.9-1.7,1.3-2.8,1.3c-1.2,0-2.2-0.5-3-1.5S504,346.4,504,344.7z M506.4,344.9c0,1.1,0.2,1.9,0.6,2.5s1,0.9,1.8,0.9
		c1,0,1.7-0.4,2.1-1.3v-4.5c-0.4-0.8-1.1-1.3-2.1-1.3c-0.8,0-1.4,0.3-1.8,0.9S506.4,343.7,506.4,344.9z"/>
	<path class="st0" d="M527.1,350.1c-0.1-0.2-0.2-0.5-0.3-1c-0.8,0.8-1.7,1.2-2.8,1.2c-1.1,0-1.9-0.3-2.6-0.9c-0.7-0.6-1-1.4-1-2.2
		c0-1.1,0.4-2,1.3-2.6c0.8-0.6,2-0.9,3.6-0.9h1.5v-0.7c0-0.5-0.2-1-0.5-1.3c-0.3-0.3-0.8-0.5-1.4-0.5c-0.5,0-1,0.1-1.3,0.4
		c-0.3,0.3-0.5,0.6-0.5,1h-2.4c0-0.6,0.2-1.1,0.6-1.6c0.4-0.5,0.9-0.9,1.6-1.2c0.7-0.3,1.4-0.4,2.2-0.4c1.2,0,2.2,0.3,3,0.9
		c0.7,0.6,1.1,1.5,1.1,2.6v4.8c0,1,0.1,1.7,0.4,2.3v0.2H527.1z M524.5,348.4c0.5,0,0.9-0.1,1.3-0.3c0.4-0.2,0.7-0.5,0.9-0.9v-2h-1.3
		c-0.9,0-1.5,0.2-2,0.5c-0.4,0.3-0.7,0.7-0.7,1.3c0,0.5,0.2,0.8,0.5,1.1S523.9,348.4,524.5,348.4z"/>
	<path class="st0" d="M541.8,347l3.6-11.1h2.7l-5.1,14.2h-2.4l-5.1-14.2h2.7L541.8,347z"/>
	<path class="st0" d="M549.5,336.8c0-0.4,0.1-0.7,0.3-0.9c0.2-0.2,0.6-0.4,1-0.4s0.8,0.1,1,0.4s0.4,0.5,0.4,0.9
		c0,0.4-0.1,0.7-0.4,0.9s-0.6,0.4-1,0.4s-0.8-0.1-1-0.4C549.6,337.4,549.5,337.1,549.5,336.8z M552,350.1h-2.4v-10.6h2.4V350.1z"/>
	<path class="st0" d="M554.2,344.7c0-1.6,0.4-2.9,1.1-3.9c0.8-1,1.8-1.5,3-1.5c1.1,0,2,0.4,2.7,1.2v-5.4h2.4v15h-2.1l-0.1-1.1
		c-0.7,0.9-1.7,1.3-2.8,1.3c-1.2,0-2.2-0.5-3-1.5C554.5,347.8,554.2,346.4,554.2,344.7z M556.5,344.9c0,1.1,0.2,1.9,0.6,2.5
		c0.4,0.6,1,0.9,1.8,0.9c1,0,1.7-0.4,2.1-1.3v-4.5c-0.4-0.8-1.1-1.3-2.1-1.3c-0.8,0-1.4,0.3-1.8,0.9
		C556.7,342.8,556.5,343.7,556.5,344.9z"/>
	<path class="st0" d="M570.5,350.3c-1.5,0-2.7-0.5-3.7-1.4c-0.9-0.9-1.4-2.2-1.4-3.8v-0.3c0-1.1,0.2-2,0.6-2.8
		c0.4-0.8,1-1.5,1.7-1.9c0.7-0.5,1.6-0.7,2.5-0.7c1.4,0,2.6,0.5,3.3,1.4c0.8,0.9,1.2,2.2,1.2,3.9v1h-6.9c0.1,0.9,0.4,1.6,0.9,2.1
		c0.5,0.5,1.2,0.8,1.9,0.8c1.1,0,2-0.4,2.7-1.3l1.3,1.2c-0.4,0.6-1,1.1-1.7,1.5C572.2,350.1,571.4,350.3,570.5,350.3z M570.3,341.2
		c-0.7,0-1.2,0.2-1.6,0.7s-0.7,1.1-0.8,1.9h4.5v-0.2c-0.1-0.8-0.3-1.4-0.6-1.8S570.9,341.2,570.3,341.2z"/>
	<path class="st0" d="M576.2,344.7c0-1,0.2-2,0.6-2.8s1-1.5,1.7-1.9s1.6-0.7,2.6-0.7c1.4,0,2.6,0.5,3.5,1.4s1.4,2.1,1.4,3.7l0,0.6
		c0,1-0.2,2-0.6,2.8s-1,1.5-1.7,1.9c-0.7,0.4-1.6,0.7-2.6,0.7c-1.5,0-2.7-0.5-3.6-1.5c-0.9-1-1.3-2.3-1.3-4V344.7z M578.5,344.9
		c0,1.1,0.2,1.9,0.7,2.6s1.1,0.9,1.9,0.9s1.4-0.3,1.9-0.9c0.4-0.6,0.7-1.5,0.7-2.7c0-1.1-0.2-1.9-0.7-2.5s-1.1-0.9-1.9-0.9
		c-0.8,0-1.4,0.3-1.8,0.9C578.8,342.8,578.5,343.7,578.5,344.9z"/>
</g>
<polygon class="st1" points="503,290.8 543.6,261.8 503,232.8 "/>
<path class="st1" d="M481.1,212.3h77.8c7.8,0,14.1,6.3,14.1,14.1v70.7c0,7.8-6.3,14.1-14.1,14.1h-77.8c-7.8,0-14.1-6.3-14.1-14.1
	v-70.7C467,218.6,473.3,212.3,481.1,212.3z"/>
</svg>
